<?xml version="1.0" standalone="no"?>
<!DOCTYPE svg PUBLIC "-//W3C//DTD SVG 20010904//EN"
 "http://www.w3.org/TR/2001/REC-SVG-20010904/DTD/svg10.dtd">
<svg version="1.0" xmlns="http://www.w3.org/2000/svg"
 width="310.000000pt" height="311.000000pt" viewBox="0 0 310.000000 311.000000"
 preserveAspectRatio="xMidYMid meet">
<metadata>
Created by potrace 1.16, written by Peter Selinger 2001-2019
</metadata>
<g transform="translate(0.000000,311.000000) scale(0.100000,-0.100000)"
fill="#000000" stroke="none">
<path d="M880 3096 c-83 -9 138 -12 1043 -14 l1147 -2 0 -514 c0 -448 2 -515
15 -520 13 -5 15 58 15 529 l0 535 -1057 -1 c-691 -1 -1094 -6 -1163 -13z"/>
<path d="M800 2956 c-3 -2 -32 -6 -65 -9 -33 -2 -67 -7 -75 -10 -8 -3 -36 -10
-62 -16 -137 -32 -285 -155 -353 -295 -75 -152 -73 -127 -74 -1017 -1 -827 1
-897 41 -1014 72 -210 268 -366 498 -393 71 -9 1609 -9 1676 0 231 29 417 172
491 375 52 145 54 183 50 1038 -4 887 -1 858 -78 1014 -76 154 -217 263 -394
304 -86 20 -122 21 -870 24 -430 2 -783 2 -785 -1z m489 -656 l24 -45 236 0
237 0 22 49 22 49 52 -6 c64 -8 205 -48 310 -88 73 -29 79 -33 116 -92 202
-321 301 -683 277 -1016 l-7 -98 -80 -53 c-102 -66 -249 -139 -359 -178 l-87
-31 -20 22 c-26 28 -92 138 -92 154 0 6 36 28 80 49 44 20 80 41 80 45 0 21
-50 18 -108 -6 -101 -41 -257 -75 -378 -82 -174 -9 -343 18 -532 88 -56 21
-64 22 -78 8 -14 -15 -7 -20 70 -55 47 -21 86 -41 86 -44 0 -10 -100 -169
-110 -175 -12 -8 -185 58 -285 108 -119 59 -242 143 -249 169 -11 43 -6 293 9
393 19 134 57 277 107 399 46 114 150 305 188 346 28 29 151 78 295 116 125
33 144 30 174 -26z"/>
<path d="M1159 1691 c-118 -38 -173 -190 -107 -301 33 -57 89 -90 152 -90 149
0 230 178 145 317 -37 59 -126 94 -190 74z"/>
<path d="M1837 1686 c-52 -19 -76 -42 -103 -101 -30 -64 -30 -117 0 -181 32
-69 74 -97 151 -102 70 -4 105 14 151 73 30 40 42 113 30 180 -9 49 -77 122
-125 135 -46 13 -57 12 -104 -4z"/>
<path d="M16 2295 c-4 -22 -10 -547 -13 -1167 l-4 -1128 403 0 c354 1 400 2
378 15 -20 12 -92 14 -387 15 l-363 0 -2 1153 c-2 669 -7 1135 -12 1112z"/>
<path d="M1527 23 c-4 -3 -7 -10 -7 -15 0 -4 279 -8 620 -8 546 0 619 2 614
15 -5 13 -83 15 -613 15 -334 0 -611 -3 -614 -7z"/>
</g>
</svg>
