<?xml version="1.0" standalone="no"?>
<!DOCTYPE svg PUBLIC "-//W3C//DTD SVG 20010904//EN"
 "http://www.w3.org/TR/2001/REC-SVG-20010904/DTD/svg10.dtd">
<svg version="1.0" xmlns="http://www.w3.org/2000/svg"
 width="310.000000pt" height="311.000000pt" viewBox="0 0 310.000000 311.000000"
 preserveAspectRatio="xMidYMid meet">
<metadata>
Created by potrace 1.16, written by Peter Selinger 2001-2019
</metadata>
<g transform="translate(0.000000,311.000000) scale(0.100000,-0.100000)"
fill="#000000" stroke="none">
<path d="M1290 3036 c-337 -65 -605 -213 -840 -463 -184 -197 -311 -446 -372
-728 -33 -156 -33 -440 0 -594 117 -538 488 -958 1001 -1132 224 -77 492 -99
718 -59 455 79 817 322 1056 710 203 330 267 740 176 1133 -99 424 -399 801
-794 996 -222 110 -388 151 -645 156 -154 4 -190 1 -300 -19z m710 -526 c79
-6 152 -13 162 -16 16 -5 18 -22 18 -185 0 -98 -3 -179 -7 -179 -259 -4 -280
-6 -306 -23 -60 -39 -67 -65 -67 -249 l0 -168 180 0 c165 0 180 -1 180 -17 0
-25 -49 -355 -55 -370 -3 -10 -44 -13 -155 -13 l-150 0 0 -475 0 -475 -240 0
-240 0 0 475 0 475 -165 0 -165 0 0 200 0 200 165 0 165 0 0 183 c0 117 5 205
14 248 41 190 192 343 380 384 76 17 105 17 286 5z"/>
</g>
</svg>
