<?xml version="1.0" standalone="no"?>
<!DOCTYPE svg PUBLIC "-//W3C//DTD SVG 20010904//EN"
 "http://www.w3.org/TR/2001/REC-SVG-20010904/DTD/svg10.dtd">
<svg version="1.0" xmlns="http://www.w3.org/2000/svg"
 width="310.000000pt" height="311.000000pt" viewBox="0 0 310.000000 311.000000"
 preserveAspectRatio="xMidYMid meet">
<metadata>
Created by potrace 1.16, written by Peter Selinger 2001-2019
</metadata>
<g transform="translate(0.000000,311.000000) scale(0.100000,-0.100000)"
fill="#000000" stroke="none">
<path d="M1365 3054 c-343 -52 -644 -201 -876 -434 -54 -54 -108 -113 -120
-132 -13 -20 -42 -62 -65 -94 -54 -78 -77 -124 -58 -117 8 3 14 0 14 -7 0 -6
4 -9 9 -6 5 3 11 -1 15 -9 3 -8 10 -15 15 -15 6 0 7 8 4 18 -7 16 -6 16 11 0
9 -10 14 -22 11 -28 -3 -5 14 -22 39 -38 25 -15 44 -32 41 -39 -4 -12 44 -53
63 -53 6 0 15 -19 20 -42 7 -30 10 -35 11 -18 2 45 17 51 18 8 2 -49 23 -78
23 -32 0 99 78 253 180 355 82 83 165 134 275 170 68 22 82 23 495 25 234 1
461 -1 505 -6 255 -26 461 -192 541 -437 l29 -88 0 -495 c0 -478 -1 -497 -21
-557 -74 -214 -260 -390 -460 -434 -71 -16 -103 -39 -53 -39 27 0 30 -2 19
-15 -10 -13 -9 -15 10 -15 13 0 24 -8 27 -20 3 -11 11 -20 19 -20 8 0 11 6 8
15 -4 8 -1 15 6 15 6 0 11 -8 10 -17 -3 -25 11 -63 22 -63 5 0 6 5 3 10 -3 6
-3 10 0 10 10 0 35 -27 35 -38 0 -5 9 -17 20 -27 11 -10 20 -24 20 -31 0 -8
12 -21 28 -31 15 -9 29 -18 31 -19 1 -2 0 -8 -4 -14 -5 -8 -15 -4 -31 11 -13
12 -24 18 -24 13 0 -5 9 -16 19 -24 19 -13 19 -15 3 -27 -14 -11 -13 -12 10
-2 16 7 28 16 28 20 0 4 11 10 25 13 16 4 23 11 19 18 -4 7 -3 8 4 4 13 -8
114 57 199 129 305 257 490 621 523 1028 23 286 -34 562 -166 818 -208 399
-576 680 -1026 780 -72 16 -136 22 -283 24 -104 2 -203 1 -220 -1z"/>
<path d="M1052 2345 c-114 -36 -207 -114 -262 -221 l-35 -69 -1 -195 c-1 -107
0 -177 3 -155 7 68 10 70 49 35 20 -17 47 -36 60 -42 13 -6 24 -16 24 -22 0
-14 51 -66 66 -66 7 0 15 -14 19 -30 5 -24 10 -29 20 -20 10 9 15 4 20 -20 11
-48 20 -35 23 33 11 268 243 487 516 487 141 0 244 -42 351 -142 120 -111 180
-282 155 -439 -31 -203 -159 -352 -365 -424 -53 -19 -206 -26 -260 -12 -19 4
-24 4 -15 -2 8 -5 36 -12 62 -15 26 -4 55 -14 63 -23 9 -8 25 -13 35 -10 13 3
20 0 20 -9 0 -8 -10 -14 -22 -15 -19 0 -18 -2 8 -12 41 -16 108 -73 100 -86
-4 -6 13 -23 36 -38 24 -15 45 -29 48 -31 2 -2 -1 -7 -9 -11 -15 -9 5 -20 42
-22 13 -1 8 -4 -13 -8 -70 -14 115 -25 204 -12 186 26 317 146 361 332 20 88
22 867 1 944 -31 119 -95 209 -191 271 -99 63 -110 64 -614 63 -352 0 -466 -3
-499 -14z m1100 -173 c64 -64 39 -172 -46 -200 -79 -26 -156 30 -156 114 0 80
51 127 129 120 32 -3 52 -12 73 -34z"/>
<path d="M1470 1847 c-133 -38 -219 -153 -220 -294 0 -173 131 -306 304 -306
95 -1 160 28 225 99 62 68 85 131 79 222 -6 113 -73 214 -172 262 -54 26 -156
34 -216 17z"/>
</g>
</svg>
