<?xml version="1.0" encoding="utf-8"?>
<!DOCTYPE svg PUBLIC "-//W3C//DTD SVG 1.1//EN" "http://www.w3.org/Graphics/SVG/1.1/DTD/svg11.dtd">
<svg xmlns="http://www.w3.org/2000/svg" version="1.1" width="1920px" height="1920px" style="shape-rendering:geometricPrecision; text-rendering:geometricPrecision; image-rendering:optimizeQuality; fill-rule:evenodd; clip-rule:evenodd" xmlns:xlink="http://www.w3.org/1999/xlink">
	<g>
		<path style="opacity:1" fill="#feb100" d="M 916.5,-0.5 C 945.167,-0.5 973.833,-0.5 1002.5,-0.5C 1187.08,8.84824 1355.08,65.8482 1506.5,170.5C 1506.97,171.906 1507.97,172.573 1509.5,172.5C 1517.23,177.356 1524.56,182.689 1531.5,188.5C 1531.97,189.906 1532.97,190.573 1534.5,190.5C 1535.17,190.5 1535.5,190.833 1535.5,191.5C 1535.97,192.906 1536.97,193.573 1538.5,193.5C 1542.15,195.817 1545.48,198.484 1548.5,201.5C 1548.97,202.906 1549.97,203.573 1551.5,203.5C 1555.82,206.486 1559.82,209.82 1563.5,213.5C 1563.97,214.906 1564.97,215.573 1566.5,215.5C 1567.5,215.833 1568.17,216.5 1568.5,217.5C 1568.97,218.906 1569.97,219.573 1571.5,219.5C 1575.25,222.041 1578.59,225.041 1581.5,228.5C 1581.97,229.906 1582.97,230.573 1584.5,230.5C 1586.17,231.5 1587.5,232.833 1588.5,234.5C 1588.97,235.906 1589.97,236.573 1591.5,236.5C 1593.83,238.167 1595.83,240.167 1597.5,242.5C 1597.97,243.906 1598.97,244.573 1600.5,244.5C 1603.17,246.5 1605.5,248.833 1607.5,251.5C 1608.58,253.587 1610.25,254.92 1612.5,255.5C 1612.41,256.496 1612.75,257.329 1613.5,258C 1606.17,258.5 1598.84,258.666 1591.5,258.5C 1164.99,257.801 738.659,257.801 312.5,258.5C 310.143,258.663 307.81,258.497 305.5,258C 307.706,255.963 309.706,253.797 311.5,251.5C 455.792,119.371 625.459,38.5376 820.5,9C 852.53,4.5635 884.53,1.39684 916.5,-0.5 Z"/>
	</g>
	<g>
		<path style="opacity:0.008" fill="#ee5f03" d="M 1506.5,170.5 C 1508.03,170.427 1509.03,171.094 1509.5,172.5C 1507.97,172.573 1506.97,171.906 1506.5,170.5 Z"/>
	</g>
	<g>
		<path style="opacity:0.008" fill="#ef5f03" d="M 1531.5,188.5 C 1533.03,188.427 1534.03,189.094 1534.5,190.5C 1532.97,190.573 1531.97,189.906 1531.5,188.5 Z"/>
	</g>
	<g>
		<path style="opacity:0.008" fill="#ee5f04" d="M 1535.5,191.5 C 1537.03,191.427 1538.03,192.094 1538.5,193.5C 1536.97,193.573 1535.97,192.906 1535.5,191.5 Z"/>
	</g>
	<g>
		<path style="opacity:0.008" fill="#ef6003" d="M 1548.5,201.5 C 1550.03,201.427 1551.03,202.094 1551.5,203.5C 1549.97,203.573 1548.97,202.906 1548.5,201.5 Z"/>
	</g>
	<g>
		<path style="opacity:0.008" fill="#ec6004" d="M 1563.5,213.5 C 1565.03,213.427 1566.03,214.094 1566.5,215.5C 1564.97,215.573 1563.97,214.906 1563.5,213.5 Z"/>
	</g>
	<g>
		<path style="opacity:0.008" fill="#ee5f01" d="M 1568.5,217.5 C 1570.03,217.427 1571.03,218.094 1571.5,219.5C 1569.97,219.573 1568.97,218.906 1568.5,217.5 Z"/>
	</g>
	<g>
		<path style="opacity:0.01" fill="#fe6d00" d="M -0.5,235.5 C -0.5,231.833 -0.5,228.167 -0.5,224.5C 0.161445,223.282 0.828112,221.949 1.5,220.5C 2.66392,226.807 2.83059,233.141 2,239.5C 1.06564,238.142 0.232305,236.808 -0.5,235.5 Z"/>
	</g>
	<g>
		<path style="opacity:0.02" fill="#db5a01" d="M 1581.5,228.5 C 1583.03,228.427 1584.03,229.094 1584.5,230.5C 1582.97,230.573 1581.97,229.906 1581.5,228.5 Z"/>
	</g>
	<g>
		<path style="opacity:0.02" fill="#dd5a01" d="M 1588.5,234.5 C 1590.03,234.427 1591.03,235.094 1591.5,236.5C 1589.97,236.573 1588.97,235.906 1588.5,234.5 Z"/>
	</g>
	<g>
		<path style="opacity:0.02" fill="#da5a01" d="M 1597.5,242.5 C 1599.03,242.427 1600.03,243.094 1600.5,244.5C 1598.97,244.573 1597.97,243.906 1597.5,242.5 Z"/>
	</g>
	<g>
		<path style="opacity:0.008" fill="#ea6402" d="M 1607.5,251.5 C 1609.75,252.08 1611.42,253.413 1612.5,255.5C 1610.25,254.92 1608.58,253.587 1607.5,251.5 Z"/>
	</g>
	<g>
		<path style="opacity:1" fill="#fe8e00" d="M 311.5,251.5 C 309.706,253.797 307.706,255.963 305.5,258C 307.81,258.497 310.143,258.663 312.5,258.5C 739.019,259.302 1165.35,259.302 1591.5,258.5C 1598.84,258.666 1606.17,258.5 1613.5,258C 1612.75,257.329 1612.41,256.496 1612.5,255.5C 1621.13,262.465 1629.13,270.132 1636.5,278.5C 1641.44,285.11 1647.11,291.11 1653.5,296.5C 1715.36,359.89 1766.69,430.89 1807.5,509.5C 1807.18,511.048 1806.18,511.715 1804.5,511.5C 1240.14,511.728 675.808,511.395 111.5,510.5C 111.5,510.167 111.5,509.833 111.5,509.5C 112.326,506.515 113.659,503.849 115.5,501.5C 117.25,500.341 118.25,498.674 118.5,496.5C 118.66,494.847 119.326,493.514 120.5,492.5C 121.906,492.027 122.573,491.027 122.5,489.5C 122.992,487.181 123.992,485.181 125.5,483.5C 126.906,483.027 127.573,482.027 127.5,480.5C 127.328,479.508 127.662,478.842 128.5,478.5C 129.906,478.027 130.573,477.027 130.5,475.5C 130.328,474.508 130.662,473.842 131.5,473.5C 132.906,473.027 133.573,472.027 133.5,470.5C 133.66,468.847 134.326,467.514 135.5,466.5C 136.906,466.027 137.573,465.027 137.5,463.5C 137.328,462.508 137.662,461.842 138.5,461.5C 139.906,461.027 140.573,460.027 140.5,458.5C 141.906,458.027 142.573,457.027 142.5,455.5C 142.328,454.508 142.662,453.842 143.5,453.5C 144.906,453.027 145.573,452.027 145.5,450.5C 146.906,450.027 147.573,449.027 147.5,447.5C 147.328,446.508 147.662,445.842 148.5,445.5C 149.906,445.027 150.573,444.027 150.5,442.5C 151.906,442.027 152.573,441.027 152.5,439.5C 153.906,439.027 154.573,438.027 154.5,436.5C 155.906,436.027 156.573,435.027 156.5,433.5C 157.906,433.027 158.573,432.027 158.5,430.5C 160.673,426.148 163.34,422.148 166.5,418.5C 167.906,418.027 168.573,417.027 168.5,415.5C 169.906,415.027 170.573,414.027 170.5,412.5C 171.026,410.77 172.026,409.436 173.5,408.5C 174.906,408.027 175.573,407.027 175.5,405.5C 176.906,405.027 177.573,404.027 177.5,402.5C 177.5,401.833 177.833,401.5 178.5,401.5C 179.906,401.027 180.573,400.027 180.5,398.5C 181.906,398.027 182.573,397.027 182.5,395.5C 182.5,394.833 182.833,394.5 183.5,394.5C 184.906,394.027 185.573,393.027 185.5,391.5C 186.026,389.77 187.026,388.436 188.5,387.5C 189.906,387.027 190.573,386.027 190.5,384.5C 190.5,383.833 190.833,383.5 191.5,383.5C 193.262,382.738 194.262,381.404 194.5,379.5C 194.5,378.833 194.833,378.5 195.5,378.5C 196.906,378.027 197.573,377.027 197.5,375.5C 197.5,374.833 197.833,374.5 198.5,374.5C 199.906,374.027 200.573,373.027 200.5,371.5C 200.5,370.833 200.833,370.5 201.5,370.5C 203.262,369.738 204.262,368.404 204.5,366.5C 204.5,365.833 204.833,365.5 205.5,365.5C 207.262,364.738 208.262,363.404 208.5,361.5C 208.5,360.833 208.833,360.5 209.5,360.5C 211.262,359.738 212.262,358.404 212.5,356.5C 212.5,355.833 212.833,355.5 213.5,355.5C 215.262,354.738 216.262,353.404 216.5,351.5C 216.5,350.833 216.833,350.5 217.5,350.5C 219.587,349.415 220.92,347.749 221.5,345.5C 221.833,344.5 222.5,343.833 223.5,343.5C 225.262,342.738 226.262,341.404 226.5,339.5C 226.833,338.5 227.5,337.833 228.5,337.5C 230.587,336.415 231.92,334.749 232.5,332.5C 243.125,319.541 254.458,307.207 266.5,295.5C 276.5,286.167 286.167,276.5 295.5,266.5C 300.224,260.773 305.558,255.773 311.5,251.5 Z"/>
	</g>
	<g>
		<path style="opacity:1" fill="#ff9e00" d="M 312.5,258.5 C 738.659,257.801 1164.99,257.801 1591.5,258.5C 1165.35,259.302 739.019,259.302 312.5,258.5 Z"/>
	</g>
	<g>
		<path style="opacity:0.055" fill="#fe8f00" d="M -0.5,302.5 C -0.5,295.167 -0.5,287.833 -0.5,280.5C 0.314913,279.571 1.14825,278.571 2,277.5C 2.83197,286.518 2.6653,295.518 1.5,304.5C 0.818153,303.757 0.151487,303.091 -0.5,302.5 Z"/>
	</g>
	<g>
		<path style="opacity:0.929" fill="#ef6702" d="M 295.5,266.5 C 286.167,276.5 276.5,286.167 266.5,295.5C 274.909,285.587 283.909,276.087 293.5,267C 294.094,266.536 294.761,266.369 295.5,266.5 Z"/>
	</g>
	<g>
		<path style="opacity:0.784" fill="#ed5702" d="M 1636.5,278.5 C 1642.89,283.89 1648.56,289.89 1653.5,296.5C 1647.11,291.11 1641.44,285.11 1636.5,278.5 Z"/>
	</g>
	<g>
		<path style="opacity:0.494" fill="#b12806" d="M 232.5,332.5 C 231.92,334.749 230.587,336.415 228.5,337.5C 229.08,335.251 230.413,333.585 232.5,332.5 Z"/>
	</g>
	<g>
		<path style="opacity:0.4" fill="#a51a08" d="M 226.5,339.5 C 226.262,341.404 225.262,342.738 223.5,343.5C 223.738,341.596 224.738,340.262 226.5,339.5 Z"/>
	</g>
	<g>
		<path style="opacity:0.471" fill="#ac2306" d="M 221.5,345.5 C 220.92,347.749 219.587,349.415 217.5,350.5C 218.08,348.251 219.413,346.585 221.5,345.5 Z"/>
	</g>
	<g>
		<path style="opacity:0.576" fill="#b1260a" d="M 216.5,351.5 C 216.262,353.404 215.262,354.738 213.5,355.5C 213.738,353.596 214.738,352.262 216.5,351.5 Z"/>
	</g>
	<g>
		<path style="opacity:0.396" fill="#a51c07" d="M 212.5,356.5 C 212.262,358.404 211.262,359.738 209.5,360.5C 209.738,358.596 210.738,357.262 212.5,356.5 Z"/>
	</g>
	<g>
		<path style="opacity:0.396" fill="#a82007" d="M 208.5,361.5 C 208.262,363.404 207.262,364.738 205.5,365.5C 205.738,363.596 206.738,362.262 208.5,361.5 Z"/>
	</g>
	<g>
		<path style="opacity:0.627" fill="#b62b09" d="M 204.5,366.5 C 204.262,368.404 203.262,369.738 201.5,370.5C 201.738,368.596 202.738,367.262 204.5,366.5 Z"/>
	</g>
	<g>
		<path style="opacity:0.396" fill="#a00706" d="M 200.5,371.5 C 200.573,373.027 199.906,374.027 198.5,374.5C 198.427,372.973 199.094,371.973 200.5,371.5 Z"/>
	</g>
	<g>
		<path style="opacity:0.486" fill="#a71c06" d="M 197.5,375.5 C 197.573,377.027 196.906,378.027 195.5,378.5C 195.427,376.973 196.094,375.973 197.5,375.5 Z"/>
	</g>
	<g>
		<path style="opacity:0.408" fill="#ac1c0b" d="M 194.5,379.5 C 194.262,381.404 193.262,382.738 191.5,383.5C 191.738,381.596 192.738,380.262 194.5,379.5 Z"/>
	</g>
	<g>
		<path style="opacity:0.353" fill="#b90309" d="M 190.5,384.5 C 190.573,386.027 189.906,387.027 188.5,387.5C 188.427,385.973 189.094,384.973 190.5,384.5 Z"/>
	</g>
	<g>
		<path style="opacity:0.396" fill="#a61006" d="M 185.5,391.5 C 185.573,393.027 184.906,394.027 183.5,394.5C 183.427,392.973 184.094,391.973 185.5,391.5 Z"/>
	</g>
	<g>
		<path style="opacity:0.373" fill="#b40408" d="M 182.5,395.5 C 182.573,397.027 181.906,398.027 180.5,398.5C 180.427,396.973 181.094,395.973 182.5,395.5 Z"/>
	</g>
	<g>
		<path style="opacity:0.408" fill="#a1210c" d="M 180.5,398.5 C 180.573,400.027 179.906,401.027 178.5,401.5C 178.427,399.973 179.094,398.973 180.5,398.5 Z"/>
	</g>
	<g>
		<path style="opacity:0.392" fill="#ac1806" d="M 177.5,402.5 C 177.573,404.027 176.906,405.027 175.5,405.5C 175.427,403.973 176.094,402.973 177.5,402.5 Z"/>
	</g>
	<g>
		<path style="opacity:0.4" fill="#ae2206" d="M 175.5,405.5 C 175.573,407.027 174.906,408.027 173.5,408.5C 173.427,406.973 174.094,405.973 175.5,405.5 Z"/>
	</g>
	<g>
		<path style="opacity:0.361" fill="#a50907" d="M 170.5,412.5 C 170.573,414.027 169.906,415.027 168.5,415.5C 168.427,413.973 169.094,412.973 170.5,412.5 Z"/>
	</g>
	<g>
		<path style="opacity:0.392" fill="#af1b06" d="M 168.5,415.5 C 168.573,417.027 167.906,418.027 166.5,418.5C 166.427,416.973 167.094,415.973 168.5,415.5 Z"/>
	</g>
	<g>
		<path style="opacity:0.404" fill="#b02406" d="M 158.5,430.5 C 158.573,432.027 157.906,433.027 156.5,433.5C 156.427,431.973 157.094,430.973 158.5,430.5 Z"/>
	</g>
	<g>
		<path style="opacity:0.396" fill="#b02305" d="M 156.5,433.5 C 156.573,435.027 155.906,436.027 154.5,436.5C 154.427,434.973 155.094,433.973 156.5,433.5 Z"/>
	</g>
	<g>
		<path style="opacity:0.384" fill="#b31f06" d="M 154.5,436.5 C 154.573,438.027 153.906,439.027 152.5,439.5C 152.427,437.973 153.094,436.973 154.5,436.5 Z"/>
	</g>
	<g>
		<path style="opacity:0.388" fill="#b11d06" d="M 152.5,439.5 C 152.573,441.027 151.906,442.027 150.5,442.5C 150.427,440.973 151.094,439.973 152.5,439.5 Z"/>
	</g>
	<g>
		<path style="opacity:0.329" fill="#bb0e07" d="M 150.5,442.5 C 150.573,444.027 149.906,445.027 148.5,445.5C 148.427,443.973 149.094,442.973 150.5,442.5 Z"/>
	</g>
	<g>
		<path style="opacity:0.38" fill="#b52006" d="M 147.5,447.5 C 147.573,449.027 146.906,450.027 145.5,450.5C 145.427,448.973 146.094,447.973 147.5,447.5 Z"/>
	</g>
	<g>
		<path style="opacity:0.322" fill="#b90808" d="M 145.5,450.5 C 145.573,452.027 144.906,453.027 143.5,453.5C 143.427,451.973 144.094,450.973 145.5,450.5 Z"/>
	</g>
	<g>
		<path style="opacity:0.376" fill="#b52006" d="M 142.5,455.5 C 142.573,457.027 141.906,458.027 140.5,458.5C 140.427,456.973 141.094,455.973 142.5,455.5 Z"/>
	</g>
	<g>
		<path style="opacity:0.314" fill="#bb0808" d="M 140.5,458.5 C 140.573,460.027 139.906,461.027 138.5,461.5C 138.427,459.973 139.094,458.973 140.5,458.5 Z"/>
	</g>
	<g>
		<path style="opacity:0.31" fill="#bc1007" d="M 137.5,463.5 C 137.573,465.027 136.906,466.027 135.5,466.5C 135.427,464.973 136.094,463.973 137.5,463.5 Z"/>
	</g>
	<g>
		<path style="opacity:0.38" fill="#b62606" d="M 133.5,470.5 C 133.573,472.027 132.906,473.027 131.5,473.5C 131.427,471.973 132.094,470.973 133.5,470.5 Z"/>
	</g>
	<g>
		<path style="opacity:0.361" fill="#b31f06" d="M 130.5,475.5 C 130.573,477.027 129.906,478.027 128.5,478.5C 128.427,476.973 129.094,475.973 130.5,475.5 Z"/>
	</g>
	<g>
		<path style="opacity:0.314" fill="#af1806" d="M 127.5,480.5 C 127.573,482.027 126.906,483.027 125.5,483.5C 125.427,481.973 126.094,480.973 127.5,480.5 Z"/>
	</g>
	<g>
		<path style="opacity:0.329" fill="#af1c06" d="M 122.5,489.5 C 122.573,491.027 121.906,492.027 120.5,492.5C 120.427,490.973 121.094,489.973 122.5,489.5 Z"/>
	</g>
	<g>
		<path style="opacity:0.271" fill="#bb1607" d="M 118.5,496.5 C 118.25,498.674 117.25,500.341 115.5,501.5C 115.75,499.326 116.75,497.659 118.5,496.5 Z"/>
	</g>
	<g>
		<path style="opacity:1" fill="#fe6c00" d="M 111.5,509.5 C 111.5,509.833 111.5,510.167 111.5,510.5C 113.292,511.309 115.292,511.809 117.5,512C 396,512.167 674.5,512.333 953,512.5C 1237.04,512.494 1520.88,512.16 1804.5,511.5C 1806.18,511.715 1807.18,511.048 1807.5,509.5C 1850.86,589.408 1881.7,674.074 1900,763.5C 1903.08,778.08 1905.58,792.747 1907.5,807.5C 1907.5,808.833 1907.5,810.167 1907.5,811.5C 1596.5,811.5 1285.5,811.5 974.5,811.5C 969.522,806.187 964.522,800.854 959.5,795.5C 953.147,800.856 946.814,806.19 940.5,811.5C 632.833,811.5 325.167,811.5 17.5,811.5C 15.5,811.5 13.5,811.5 11.5,811.5C 11.5,810.167 11.5,808.833 11.5,807.5C 27.6396,702.222 60.9729,602.889 111.5,509.5 Z"/>
	</g>
	<g>
		<path style="opacity:1" fill="#ff7800" d="M 111.5,510.5 C 675.808,511.395 1240.14,511.728 1804.5,511.5C 1520.88,512.16 1237.04,512.494 953,512.5C 674.5,512.333 396,512.167 117.5,512C 115.292,511.809 113.292,511.309 111.5,510.5 Z"/>
	</g>
	<g>
		<path style="opacity:1" fill="#543020" d="M 974.5,811.5 C 1025.59,870.758 1077.25,929.592 1129.5,988C 1131.29,988.52 1132.96,988.187 1134.5,987C 1150.92,977.707 1167.42,968.54 1184,959.5C 1253.01,1002.52 1322.01,1045.52 1391,1088.5C 1392.49,1087.68 1393.99,1086.85 1395.5,1086C 1420.72,1062.28 1446.39,1039.11 1472.5,1016.5C 1495.52,1039.85 1518.52,1063.19 1541.5,1086.5C 1636.19,1182.86 1730.86,1279.19 1825.5,1375.5C 1724.77,1579.73 1571.77,1731.23 1366.5,1830C 1250.89,1883.4 1129.56,1913.24 1002.5,1919.5C 973.833,1919.5 945.167,1919.5 916.5,1919.5C 694.354,1907.2 499.021,1829.37 330.5,1686C 320.302,1676.63 310.302,1667.13 300.5,1657.5C 296.441,1652.44 291.774,1648.1 286.5,1644.5C 281.5,1640.17 276.833,1635.5 272.5,1630.5C 269.564,1625.89 265.898,1621.89 261.5,1618.5C 258.5,1616.17 255.833,1613.5 253.5,1610.5C 252.581,1607.91 250.914,1605.91 248.5,1604.5C 243.792,1600.79 239.792,1596.46 236.5,1591.5C 235.92,1589.25 234.587,1587.58 232.5,1586.5C 184.841,1532.48 144.175,1473.48 110.5,1409.5C 181.295,1348.54 251.961,1287.38 322.5,1226C 375.828,1215.43 429.161,1204.93 482.5,1194.5C 513.523,1157.81 544.523,1121.15 575.5,1084.5C 620.115,1032.21 664.781,979.878 709.5,927.5C 735.713,934.471 762.046,940.638 788.5,946C 838.694,901.968 888.694,857.801 938.5,813.5C 939.5,813.167 940.167,812.5 940.5,811.5C 946.814,806.19 953.147,800.856 959.5,795.5C 964.522,800.854 969.522,806.187 974.5,811.5 Z"/>
	</g>
	<g>
		<path style="opacity:1" fill="#fe4d00" d="M 17.5,811.5 C 325.167,811.5 632.833,811.5 940.5,811.5C 940.167,812.5 939.5,813.167 938.5,813.5C 631.5,812.833 324.5,812.167 17.5,811.5 Z"/>
	</g>
	<g>
		<path style="opacity:1" fill="#fe4000" d="M 11.5,807.5 C 11.5,808.833 11.5,810.167 11.5,811.5C 13.5,811.5 15.5,811.5 17.5,811.5C 324.5,812.167 631.5,812.833 938.5,813.5C 888.694,857.801 838.694,901.968 788.5,946C 762.046,940.638 735.713,934.471 709.5,927.5C 664.781,979.878 620.115,1032.21 575.5,1084.5C 388.5,1084.33 201.5,1084.5 14.5,1085C 12.7818,1085.35 11.1151,1085.85 9.5,1086.5C 8.81815,1085.76 8.15149,1085.09 7.5,1084.5C 3.7241,1057.17 1.05743,1029.84 -0.5,1002.5C -0.5,973.833 -0.5,945.167 -0.5,916.5C 1.45502,879.951 5.45502,843.617 11.5,807.5 Z"/>
	</g>
	<g>
		<path style="opacity:1" fill="#fe4100" d="M 1907.5,807.5 C 1913.54,843.617 1917.54,879.951 1919.5,916.5C 1919.5,945.167 1919.5,973.833 1919.5,1002.5C 1917.94,1029.84 1915.28,1057.17 1911.5,1084.5C 1788.5,1084.33 1665.5,1084.5 1542.5,1085C 1541.94,1085.38 1541.61,1085.88 1541.5,1086.5C 1518.52,1063.19 1495.52,1039.85 1472.5,1016.5C 1446.39,1039.11 1420.72,1062.28 1395.5,1086C 1393.99,1086.85 1392.49,1087.68 1391,1088.5C 1322.01,1045.52 1253.01,1002.52 1184,959.5C 1167.42,968.54 1150.92,977.707 1134.5,987C 1132.96,988.187 1131.29,988.52 1129.5,988C 1077.25,929.592 1025.59,870.758 974.5,811.5C 1285.5,811.5 1596.5,811.5 1907.5,811.5C 1907.5,810.167 1907.5,808.833 1907.5,807.5 Z"/>
	</g>
	<g>
		<path style="opacity:1" fill="#fdf9df" d="M 973.5,838.5 C 1027.46,901.057 1080.96,964.057 1134,1027.5C 1144.8,1065.03 1154.8,1102.7 1164,1140.5C 1149.71,1122.54 1135.04,1104.87 1120,1087.5C 1123.94,1108.17 1128.27,1128.84 1133,1149.5C 1133.67,1151.5 1133.67,1153.5 1133,1155.5C 1117.33,1139.83 1101.67,1124.17 1086,1108.5C 1084.25,1118.56 1082.25,1128.56 1080,1138.5C 1068.82,1118.81 1057.16,1099.47 1045,1080.5C 1036.83,1086.92 1028.83,1093.59 1021,1100.5C 1014.76,1064.89 1008.92,1029.22 1003.5,993.5C 1016.21,994.139 1028.88,994.972 1041.5,996C 1018.54,943.604 995.87,891.104 973.5,838.5 Z"/>
	</g>
	<g>
		<path style="opacity:1" fill="#fefae0" d="M 1249.5,1370.5 C 1245.69,1369.35 1241.69,1369.19 1237.5,1370C 1238.04,1370.72 1238.71,1371.22 1239.5,1371.5C 1246.33,1378.5 1253,1385.66 1259.5,1393C 1232.17,1393.33 1204.83,1393.67 1177.5,1394C 1188.21,1408.59 1199.04,1423.09 1210,1437.5C 1212,1440.52 1213.67,1443.52 1215,1446.5C 1203.37,1440.92 1191.87,1435.92 1180.5,1431.5C 1210.9,1465.89 1240.9,1500.56 1270.5,1535.5C 1247.66,1536.17 1224.66,1536.83 1201.5,1537.5C 1201.62,1538.11 1201.96,1538.44 1202.5,1538.5C 1236.33,1570.83 1270.33,1602.99 1304.5,1635C 1267.17,1635.33 1229.83,1635.67 1192.5,1636C 1218.17,1661 1243.83,1686 1269.5,1711C 1245.82,1710.93 1222.15,1710.1 1198.5,1708.5C 1196.5,1708.83 1194.5,1709.17 1192.5,1709.5C 1220.92,1754 1249.58,1798.34 1278.5,1842.5C 1278.17,1842.83 1277.83,1843.17 1277.5,1843.5C 1203.59,1806.96 1129.76,1770.29 1056,1733.5C 1079.79,1785.42 1104.46,1837.08 1130,1888.5C 1131.03,1890.84 1131.69,1893.18 1132,1895.5C 1031.63,1810.96 931.127,1726.62 830.5,1642.5C 830.44,1641.96 830.107,1641.62 829.5,1641.5C 828.833,1674.33 828.167,1707 827.5,1739.5C 721.535,1607.09 615.202,1474.92 508.5,1343C 538.466,1341.06 568.466,1339.89 598.5,1339.5C 590.633,1314.9 581.966,1290.57 572.5,1266.5C 571.833,1266.17 571.167,1265.83 570.5,1265.5C 563.267,1267.3 556.433,1269.96 550,1273.5C 540.058,1289.11 529.725,1304.44 519,1319.5C 515.321,1305.12 511.488,1290.78 507.5,1276.5C 481.472,1277.64 455.472,1279.97 429.5,1283.5C 450.833,1305.17 472.167,1326.83 493.5,1348.5C 480.521,1366.81 467.187,1384.81 453.5,1402.5C 411.167,1354.5 368.833,1306.5 326.5,1258.5C 401.133,1252.67 475.799,1247.17 550.5,1242C 600.247,1222.2 649.913,1202.2 699.5,1182C 701.211,1180.56 702.378,1178.73 703,1176.5C 717.42,1134.9 732.42,1093.57 748,1052.5C 764.667,1075.83 781.333,1099.17 798,1122.5C 808.679,1164.88 819.512,1207.21 830.5,1249.5C 829.998,1250.52 829.332,1250.69 828.5,1250C 801.397,1235.37 774.23,1220.87 747,1206.5C 689.38,1225.54 631.88,1244.87 574.5,1264.5C 653.673,1307.92 733.007,1351.09 812.5,1394C 804.833,1405.67 797.167,1417.33 789.5,1429C 838.167,1455 886.833,1481 935.5,1507C 909.282,1504.59 883.115,1501.42 857,1497.5C 855.833,1497.67 854.667,1497.83 853.5,1498C 950.921,1559.79 1048.09,1621.96 1145,1684.5C 1145.67,1683.83 1145.67,1683.17 1145,1682.5C 1110.14,1646.64 1075.64,1610.47 1041.5,1574C 1056.5,1573.67 1071.5,1573.33 1086.5,1573C 1053.97,1540.63 1021.63,1508.13 989.5,1475.5C 1002.17,1475.67 1014.84,1475.5 1027.5,1475C 1026.96,1474.28 1026.29,1473.78 1025.5,1473.5C 981.501,1428.17 937.168,1383.17 892.5,1338.5C 900.676,1337.83 909.01,1337.17 917.5,1336.5C 917.376,1335.89 917.043,1335.56 916.5,1335.5C 894.163,1317.33 871.663,1299.33 849,1281.5C 841.885,1219.13 834.551,1156.8 827,1094.5C 782.544,1051.68 738.378,1008.51 694.5,965C 699.5,964.333 704.5,964.333 709.5,965C 760.197,969.024 810.864,973.357 861.5,978C 867.883,985.261 874.383,992.428 881,999.5C 892.667,986.5 904.333,973.5 916,960.5C 919.737,937.408 923.904,914.408 928.5,891.5C 939.147,900.313 949.647,909.313 960,918.5C 964.494,936.799 968.494,955.132 972,973.5C 965.586,969.043 959.086,964.709 952.5,960.5C 951.702,962.078 951.202,963.744 951,965.5C 950.402,974.832 949.902,984.165 949.5,993.5C 939.828,993.334 930.161,993.5 920.5,994C 915.739,1005.35 911.406,1016.85 907.5,1028.5C 916.173,1028.33 924.84,1028.5 933.5,1029C 949,1045.83 964.5,1062.67 980,1079.5C 980.917,1089.49 981.25,1099.49 981,1109.5C 970.667,1099.17 960.333,1088.83 950,1078.5C 949.167,1091.85 949.334,1105.18 950.5,1118.5C 994.693,1151.19 1039.03,1183.69 1083.5,1216C 1103,1235.5 1122.5,1255 1142,1274.5C 1142.06,1262.84 1141.9,1251.17 1141.5,1239.5C 1149.64,1240.53 1157.64,1242.2 1165.5,1244.5C 1166.27,1237.49 1167.1,1230.49 1168,1223.5C 1205.83,1272.67 1243.67,1321.83 1281.5,1371C 1270.82,1371.48 1260.16,1371.32 1249.5,1370.5 Z"/>
	</g>
	<g>
		<path style="opacity:1" fill="#fefae0" d="M 1188.5,993.5 C 1255.56,1038.79 1322.4,1084.45 1389,1130.5C 1433.33,1188.83 1477.67,1247.17 1522,1305.5C 1527.1,1327.4 1531.76,1349.4 1536,1371.5C 1576.38,1419.54 1616.38,1467.88 1656,1516.5C 1629.92,1468.03 1603.26,1419.69 1576,1371.5C 1571.57,1330.14 1566.91,1288.81 1562,1247.5C 1530.33,1178.51 1499,1109.51 1468,1040.5C 1531.67,1102.17 1595.33,1163.83 1659,1225.5C 1669.34,1248.49 1679.34,1271.49 1689,1294.5C 1662.67,1274.83 1636.33,1255.17 1610,1235.5C 1623.16,1267.5 1636.66,1299.5 1650.5,1331.5C 1649.5,1331.83 1648.5,1332.17 1647.5,1332.5C 1632.29,1329.36 1617.12,1326.02 1602,1322.5C 1601.5,1322.83 1601,1323.17 1600.5,1323.5C 1634.78,1394.38 1668.78,1465.38 1702.5,1536.5C 1672.39,1573.12 1642.05,1609.62 1611.5,1646C 1529.19,1578.22 1447.19,1509.72 1365.5,1440.5C 1368.63,1438.98 1371.96,1438.15 1375.5,1438C 1413.51,1433.09 1451.51,1428.09 1489.5,1423C 1388.92,1279.94 1288.59,1136.77 1188.5,993.5 Z"/>
	</g>
	<g>
		<path style="opacity:1" fill="#fb000e" d="M 7.5,1084.5 C 8.15149,1085.09 8.81815,1085.76 9.5,1086.5C 11.1151,1085.85 12.7818,1085.35 14.5,1085C 201.5,1084.5 388.5,1084.33 575.5,1084.5C 544.523,1121.15 513.523,1157.81 482.5,1194.5C 429.161,1204.93 375.828,1215.43 322.5,1226C 251.961,1287.38 181.295,1348.54 110.5,1409.5C 56.7035,1307.44 22.3701,1199.11 7.5,1084.5 Z"/>
	</g>
	<g>
		<path style="opacity:1" fill="#fb000e" d="M 1911.5,1084.5 C 1898.49,1186.2 1869.83,1283.2 1825.5,1375.5C 1730.86,1279.19 1636.19,1182.86 1541.5,1086.5C 1541.61,1085.88 1541.94,1085.38 1542.5,1085C 1665.5,1084.5 1788.5,1084.33 1911.5,1084.5 Z"/>
	</g>
	<g>
		<path style="opacity:1" fill="#c9bba4" d="M 916.5,1335.5 C 917.043,1335.56 917.376,1335.89 917.5,1336.5C 909.01,1337.17 900.676,1337.83 892.5,1338.5C 891.957,1338.44 891.624,1338.11 891.5,1337.5C 899.99,1336.83 908.324,1336.17 916.5,1335.5 Z"/>
	</g>
	<g>
		<path style="opacity:1" fill="#ac9984" d="M 1249.5,1370.5 C 1245.96,1370.19 1242.62,1370.52 1239.5,1371.5C 1238.71,1371.22 1238.04,1370.72 1237.5,1370C 1241.69,1369.19 1245.69,1369.35 1249.5,1370.5 Z"/>
	</g>
	<g>
		<path style="opacity:1" fill="#896f5e" d="M 1025.5,1473.5 C 1026.29,1473.78 1026.96,1474.28 1027.5,1475C 1014.84,1475.5 1002.17,1475.67 989.5,1475.5C 1001.5,1474.83 1013.5,1474.17 1025.5,1473.5 Z"/>
	</g>
	<g>
		<path style="opacity:1" fill="#a18b76" d="M 1270.5,1535.5 C 1271.04,1535.56 1271.38,1535.89 1271.5,1536.5C 1248.34,1537.17 1225.34,1537.83 1202.5,1538.5C 1201.96,1538.44 1201.62,1538.11 1201.5,1537.5C 1224.66,1536.83 1247.66,1536.17 1270.5,1535.5 Z"/>
	</g>
	<g>
		<path style="opacity:0.055" fill="#861b16" d="M 232.5,1586.5 C 234.587,1587.58 235.92,1589.25 236.5,1591.5C 234.413,1590.42 233.08,1588.75 232.5,1586.5 Z"/>
	</g>
	<g>
		<path style="opacity:0.047" fill="#871d18" d="M 248.5,1604.5 C 250.914,1605.91 252.581,1607.91 253.5,1610.5C 251.086,1609.09 249.419,1607.09 248.5,1604.5 Z"/>
	</g>
	<g>
		<path style="opacity:0.008" fill="#811e16" d="M 261.5,1618.5 C 265.898,1621.89 269.564,1625.89 272.5,1630.5C 268.102,1627.11 264.436,1623.11 261.5,1618.5 Z"/>
	</g>
	<g>
		<path style="opacity:1" fill="#806553" d="M 830.5,1642.5 C 829.833,1675 829.167,1707.67 828.5,1740.5C 827.893,1740.38 827.56,1740.04 827.5,1739.5C 828.167,1707 828.833,1674.33 829.5,1641.5C 830.107,1641.62 830.44,1641.96 830.5,1642.5 Z"/>
	</g>
	<g>
		<path style="opacity:0.984" fill="#7f2017" d="M 286.5,1644.5 C 291.774,1648.1 296.441,1652.44 300.5,1657.5C 295.226,1653.9 290.559,1649.56 286.5,1644.5 Z"/>
	</g>
</svg>
